<svg xmlns="http://www.w3.org/2000/svg"  viewBox="0 0 50 50" width="50px" height="50px"><path d="M 30 0 C 26.699219 0 24 2.699219 24 6 C 24 9.300781 26.699219 12 30 12 C 33.300781 12 36 9.300781 36 6 C 36 2.699219 33.300781 0 30 0 Z M 30 2 C 32.222656 2 34 3.777344 34 6 C 34 8.222656 32.222656 10 30 10 C 27.777344 10 26 8.222656 26 6 C 26 3.777344 27.777344 2 30 2 Z M 37.59375 10.96875 C 36.921875 10.980469 36.242188 11.097656 35.59375 11.375 L 35.59375 11.40625 L 31.6875 13.1875 C 30.542969 13.695313 29.800781 14.585938 29.25 15.46875 L 29.25 15.5 L 20 30.90625 C 18.234375 31.949219 17 33.792969 17 36 L 17 39.5625 L 13.5625 43 L 3.59375 43 C 1.832031 43 0.144531 44.25 0 46.125 C -0.136719 48.148438 1.421875 50 3.5 50 L 16.1875 50 C 16.953125 50 17.734375 49.671875 18.3125 49.09375 L 24.4375 43 L 38 43 L 38 50 L 50 50 L 50 48 L 40 48 L 40 32 L 50 32 L 50 29.78125 L 49.90625 29.5625 L 42.40625 14 C 42.402344 13.992188 42.410156 13.976563 42.40625 13.96875 L 42.375 13.96875 C 41.523438 12.027344 39.597656 10.9375 37.59375 10.96875 Z M 37.65625 12.9375 C 38.070313 12.929688 38.464844 13.015625 38.84375 13.15625 C 39.605469 13.4375 40.253906 13.992188 40.59375 14.78125 L 40.59375 14.84375 L 47.875 30 L 35.84375 30 L 32.90625 23.59375 L 32.125 21.84375 L 31.15625 23.5 L 27.25 30 L 23 30 C 22.945313 30 22.898438 30.03125 22.84375 30.03125 L 30.9375 16.53125 C 30.945313 16.515625 30.960938 16.515625 30.96875 16.5 C 31.410156 15.804688 31.859375 15.285156 32.5 15 L 32.53125 15 L 36.40625 13.21875 C 36.808594 13.046875 37.242188 12.945313 37.65625 12.9375 Z M 31.875 26.125 L 33.625 30 L 29.5625 30 Z M 10 30 C 6.699219 30 4 32.699219 4 36 C 4 39.300781 6.699219 42 10 42 C 13.300781 42 16 39.300781 16 36 C 16 32.699219 13.300781 30 10 30 Z M 10 32 C 12.222656 32 14 33.777344 14 36 C 14 38.222656 12.222656 40 10 40 C 7.777344 40 6 38.222656 6 36 C 6 33.777344 7.777344 32 10 32 Z M 23 32 L 38 32 L 38 41 L 23.59375 41 L 23.28125 41.28125 L 16.90625 47.6875 C 16.683594 47.910156 16.421875 48 16.1875 48 L 3.5 48 C 2.578125 48 1.933594 47.257813 2 46.28125 C 2.054688 45.554688 2.753906 45 3.59375 45 L 14.40625 45 L 14.71875 44.71875 L 18.71875 40.71875 L 19 40.40625 L 19 36 C 19 33.722656 20.722656 32 23 32 Z"/></svg>