<svg xmlns="http://www.w3.org/2000/svg"  viewBox="0 0 32 32" width="32px" height="32px"><path d="M 16 4 C 15.0625 4 14.171875 4.0625 13.375 4.15625 C 10.871094 4.453125 9 6.613281 9 9.125 L 9 11.5 C 8.042969 12.230469 7.054688 13.308594 6.34375 15.125 C 5.519531 17.226563 5 20.269531 5 25 L 5 28 L 7 28 L 7 25 C 7 20.417969 7.503906 17.589844 8.1875 15.84375 C 8.4375 15.203125 8.71875 14.742188 9 14.34375 L 9 23.71875 L 9.6875 23.9375 C 9.6875 23.9375 12.777344 25 16 25 C 19.222656 25 22.3125 23.9375 22.3125 23.9375 L 23 23.71875 L 23 14.34375 C 23.28125 14.742188 23.5625 15.203125 23.8125 15.84375 C 24.496094 17.589844 25 20.417969 25 25 L 25 28 L 27 28 L 27 25 C 27 20.269531 26.480469 17.226563 25.65625 15.125 C 24.945313 13.308594 23.957031 12.230469 23 11.5 L 23 9.125 C 23 6.613281 21.128906 4.453125 18.625 4.15625 C 17.828125 4.0625 16.9375 4 16 4 Z M 16 6 C 16.847656 6 17.648438 6.070313 18.375 6.15625 C 19.875 6.332031 21 7.601563 21 9.125 L 21 22.25 C 20.195313 22.488281 18.25 23 16 23 C 13.75 23 11.804688 22.488281 11 22.25 L 11 9.125 C 11 7.601563 12.125 6.332031 13.625 6.15625 C 14.351563 6.070313 15.152344 6 16 6 Z"/></svg>