<svg xmlns="http://www.w3.org/2000/svg"  viewBox="0 0 50 50" width="50px" height="50px"><path d="M 23 0 C 15.77381 0 10.445563 2.4910019 7 6.4003906 C 3.554437 10.309779 2 15.559524 2 21 C 2 25.405557 3.3659916 29.507015 5.6757812 32.867188 C 7.7696127 35.913193 9 39.523726 9 43.199219 L 9 49 L 11 49 L 11 43.199219 C 11 39.078711 9.6283872 35.086369 7.3242188 31.734375 C 5.2360084 28.696547 4 24.992443 4 21 C 4 15.940476 5.445563 11.190221 8.5 7.7246094 C 11.554437 4.2589981 16.22619 2 23 2 C 29.802357 2 34.205432 3.9786035 37.115234 7.0058594 C 40.025037 10.033115 41.47309 14.205636 42.007812 18.71875 L 42.03125 18.925781 L 46.824219 27.185547 C 47.072591 27.635568 46.948819 28.078598 46.515625 28.322266 L 42 30.580078 L 42 36.601562 C 42 40.339878 38.919768 43.25078 35.195312 42.902344 L 35.179688 42.900391 L 31 42.632812 L 31 49 L 33 49 L 33 44.765625 L 35.009766 44.894531 C 39.87931 45.350095 44 41.457248 44 36.601562 L 44 31.816406 L 47.466797 30.083984 L 47.486328 30.072266 C 48.844997 29.315769 49.323557 27.566649 48.574219 26.214844 L 48.568359 26.205078 L 43.921875 18.199219 C 43.326241 13.516771 41.80508 8.998623 38.558594 5.6210938 C 35.243896 2.1725997 30.197643 -5.9211895e-16 23 0 z M 16.283203 8.4453125 C 13.977706 8.4453125 11.671081 9.3230598 9.9179688 11.076172 C 6.4117448 14.582396 6.4117448 20.298464 9.9179688 23.804688 L 10.757812 24.644531 C 10.234482 25.757929 10.417659 27.132503 11.332031 28.046875 C 11.881559 28.596403 12.60906 28.840847 13.335938 28.871094 C 13.366188 29.59797 13.610628 30.325472 14.160156 30.875 C 14.953288 31.668132 16.036849 31.718273 17.052734 31.429688 C 17.165052 31.98863 17.267827 32.566655 17.697266 32.996094 C 18.262631 33.560393 19.004742 33.756223 19.751953 33.773438 C 19.769433 34.520673 19.960256 35.259085 20.525391 35.824219 C 21.29384 36.592668 22.389582 36.859646 23.378906 36.611328 C 24.3565 36.83645 25.426693 36.579167 26.181641 35.824219 C 26.724626 35.281234 27.00502 34.573445 27.041016 33.855469 C 27.758992 33.819473 28.46678 33.539079 29.009766 32.996094 C 29.559258 32.446601 29.803583 31.718957 29.833984 30.992188 C 30.561482 30.962347 31.289858 30.717955 31.839844 30.167969 C 32.382829 29.624984 32.663223 28.917195 32.699219 28.199219 C 33.417195 28.163223 34.124984 27.882829 34.667969 27.339844 C 35.287727 26.720085 35.566395 25.886232 35.525391 25.066406 L 36.789062 23.802734 C 40.295287 20.29651 40.295287 14.580443 36.789062 11.074219 C 35.035951 9.3211065 32.729326 8.4453125 30.423828 8.4453125 C 28.118331 8.4453125 25.813659 9.3211066 24.060547 11.074219 L 23.351562 11.78125 L 22.646484 11.076172 C 20.893372 9.3230598 18.588701 8.4453125 16.283203 8.4453125 z M 30.423828 10.431641 C 32.212994 10.431641 34.002159 11.117393 35.373047 12.488281 C 38.114823 15.230057 38.114823 19.646896 35.373047 22.388672 L 34.666016 23.095703 L 33.253906 21.683594 C 32.672417 21.102057 31.902598 20.810547 31.132812 20.810547 C 30.363028 20.810547 29.593255 21.102057 29.011719 21.683594 C 28.468734 22.226579 28.188339 22.934368 28.152344 23.652344 C 27.434363 23.688425 26.726578 23.968733 26.183594 24.511719 C 25.634701 25.060611 25.390187 25.787658 25.359375 26.513672 C 24.631863 26.543502 23.903512 26.789847 23.353516 27.339844 C 22.81053 27.882829 22.530136 28.590618 22.494141 29.308594 C 21.77616 29.344675 21.068375 29.624983 20.525391 30.167969 C 20.052647 30.640712 19.7818 31.238961 19.693359 31.859375 C 19.482773 31.833221 19.277648 31.748037 19.111328 31.582031 C 18.712401 31.183104 18.712401 30.566896 19.111328 30.167969 L 23.353516 25.925781 A 1.0001 1.0001 0 0 0 23.421875 25.851562 A 1.0001 1.0001 0 0 0 23.482422 25.771484 A 1.0001 1.0001 0 0 0 23.578125 25.597656 A 1.0001 1.0001 0 0 0 23.636719 25.40625 A 1.0001 1.0001 0 0 0 23.65625 25.207031 A 1.0001 1.0001 0 0 0 23.636719 25.009766 A 1.0001 1.0001 0 0 0 23.611328 24.912109 A 1.0001 1.0001 0 0 0 23.351562 24.490234 A 1.0001 1.0001 0 0 0 23.197266 24.365234 A 1.0001 1.0001 0 0 0 23.195312 24.365234 A 1.0001 1.0001 0 0 0 23.019531 24.275391 A 1.0001 1.0001 0 0 0 23.017578 24.275391 A 1.0001 1.0001 0 0 0 22.826172 24.222656 A 1.0001 1.0001 0 0 0 22.527344 24.216797 A 1.0001 1.0001 0 0 0 22.066406 24.400391 A 1.0001 1.0001 0 0 0 21.990234 24.462891 A 1.0001 1.0001 0 0 0 21.939453 24.511719 L 17.697266 28.753906 L 16.988281 29.460938 C 16.589354 29.859863 15.973146 29.859863 15.574219 29.460938 C 15.175292 29.06201 15.175292 28.445802 15.574219 28.046875 L 20.525391 23.097656 A 1.0001 1.0001 0 0 0 20.525391 23.095703 A 1.0001 1.0001 0 0 0 20.59375 23.023438 A 1.0001 1.0001 0 0 0 20.705078 22.857422 A 1.0001 1.0001 0 0 0 20.75 22.769531 A 1.0001 1.0001 0 0 0 20.75 22.767578 A 1.0001 1.0001 0 0 0 20.783203 22.675781 A 1.0001 1.0001 0 0 0 20.783203 22.673828 A 1.0001 1.0001 0 0 0 20.822266 22.478516 A 1.0001 1.0001 0 0 0 20.828125 22.378906 A 1.0001 1.0001 0 0 0 20.822266 22.279297 A 1.0001 1.0001 0 0 0 20.808594 22.179688 A 1.0001 1.0001 0 0 0 20.748047 21.990234 A 1.0001 1.0001 0 0 0 20.748047 21.988281 A 1.0001 1.0001 0 0 0 20.705078 21.900391 A 1.0001 1.0001 0 0 0 20.705078 21.898438 A 1.0001 1.0001 0 0 0 20.591797 21.736328 A 1.0001 1.0001 0 0 0 20.591797 21.734375 A 1.0001 1.0001 0 0 0 20.449219 21.595703 A 1.0001 1.0001 0 0 0 20.28125 21.488281 A 1.0001 1.0001 0 0 0 20.189453 21.447266 A 1.0001 1.0001 0 0 0 20.095703 21.416016 A 1.0001 1.0001 0 0 0 19.503906 21.433594 A 1.0001 1.0001 0 0 0 19.412109 21.470703 A 1.0001 1.0001 0 0 0 19.111328 21.681641 L 19.111328 21.683594 L 14.160156 26.632812 C 13.761229 27.03174 13.146974 27.03174 12.748047 26.632812 C 12.34912 26.233887 12.34912 25.617677 12.748047 25.21875 A 1.0005839 1.0005839 0 0 0 12.767578 25.199219 L 19.818359 18.146484 L 22.292969 20.621094 C 23.65126 21.979385 25.883092 21.978798 27.242188 20.621094 C 28.600479 19.262802 28.601798 17.030971 27.244141 15.671875 A 1.0001 1.0001 0 0 0 27.242188 15.669922 L 24.767578 13.195312 L 25.474609 12.488281 C 26.845497 11.117393 28.634663 10.431641 30.423828 10.431641 z M 16.283203 10.433594 C 18.072369 10.433594 19.861534 11.119347 21.232422 12.490234 L 22.507812 13.765625 A 1.0001 1.0001 0 0 0 22.787109 14.042969 L 25.828125 17.085938 C 26.421027 17.680905 26.421369 18.613787 25.828125 19.207031 C 25.233157 19.799933 24.300275 19.800275 23.707031 19.207031 L 20.525391 16.025391 A 1.0001 1.0001 0 0 0 19.111328 16.025391 C 18.737963 16.39858 18.433124 16.49739 18.089844 16.517578 C 17.746564 16.537768 17.347292 16.439268 16.960938 16.263672 C 16.188229 15.912486 15.574219 15.318359 15.574219 15.318359 A 1.0001 1.0001 0 1 0 14.160156 16.732422 C 14.160156 16.732422 14.961022 17.55142 16.132812 18.083984 C 16.340693 18.178463 16.568377 18.260729 16.804688 18.332031 L 12.039062 23.097656 L 11.333984 22.390625 C 8.5922087 19.648849 8.5922087 15.23201 11.333984 12.490234 C 12.704872 11.119347 14.494038 10.433594 16.283203 10.433594 z M 31.132812 22.798828 C 31.386527 22.798828 31.64038 22.898188 31.839844 23.097656 L 33.251953 24.511719 A 1.0001 1.0001 0 0 0 33.253906 24.511719 C 33.651796 24.909099 33.650625 25.527156 33.251953 25.925781 C 32.853026 26.324708 32.238771 26.324708 31.839844 25.925781 L 30.425781 24.511719 C 30.026854 24.112792 30.026854 23.496583 30.425781 23.097656 C 30.625245 22.898193 30.879098 22.798828 31.132812 22.798828 z M 28.304688 25.625 C 28.558401 25.625 28.812255 25.726318 29.011719 25.925781 L 30.425781 27.339844 C 30.824708 27.738771 30.824708 28.353026 30.425781 28.751953 C 30.026854 29.15088 29.410646 29.15088 29.011719 28.751953 L 27.597656 27.339844 C 27.198729 26.940917 27.198729 26.324708 27.597656 25.925781 C 27.79712 25.726318 28.050973 25.625 28.304688 25.625 z M 25.474609 28.455078 C 25.728324 28.455078 25.982177 28.554438 26.181641 28.753906 L 26.183594 28.753906 L 27.595703 30.167969 C 27.993593 30.565349 27.994328 31.183406 27.595703 31.582031 C 27.196776 31.980958 26.580568 31.980958 26.181641 31.582031 L 24.767578 30.167969 C 24.368651 29.769042 24.368651 29.152833 24.767578 28.753906 C 24.967042 28.554443 25.220895 28.455078 25.474609 28.455078 z M 22.646484 31.283203 C 22.900199 31.283203 23.154052 31.382563 23.353516 31.582031 L 24.767578 32.996094 C 25.166505 33.395021 25.166505 34.011229 24.767578 34.410156 C 24.368651 34.809083 23.752443 34.809083 23.353516 34.410156 L 21.939453 32.996094 C 21.540526 32.597167 21.540526 31.980958 21.939453 31.582031 C 22.138917 31.382568 22.39277 31.283203 22.646484 31.283203 z"/></svg>